<?xml version="1.0" encoding="utf-8"?>
<!-- Generator: Adobe Illustrator 16.0.0, SVG Export Plug-In . SVG Version: 6.00 Build 0)  -->
<!DOCTYPE svg PUBLIC "-//W3C//DTD SVG 1.1//EN" "http://www.w3.org/Graphics/SVG/1.1/DTD/svg11.dtd">
<svg version="1.1" id="Laag_1" xmlns="http://www.w3.org/2000/svg" xmlns:xlink="http://www.w3.org/1999/xlink" x="0px" y="0px"
	 width="500px" height="500px" viewBox="0 0 500 500" enable-background="new 0 0 500 500" xml:space="preserve">
<circle fill="#777777" cx="250.333" cy="250" r="235.333"/>
<g>
	<g>
		<path fill="#FFFFFF" d="M27.338,252.447c0-2.836,1.39-7.769,4.17-14.796c2.78-7.028,6.7-14.623,11.763-22.787
			c5.059-8.16,12.117-15.295,21.173-21.4c9.053-6.102,18.854-9.156,29.407-9.156c12.261,0,22.917,3.569,31.973,10.7
			c9.053,7.131,13.581,16.558,13.581,28.28c0,5.29-5.207,22.085-15.612,50.386c-10.409,28.301-15.612,50.456-15.612,66.463
			c0,21.44,9.26,32.16,27.779,32.16c10.84,0,20.896-5.36,30.166-16.08c9.27-10.72,16.401-23.011,21.393-36.875
			c4.993-13.865,8.879-26.086,11.659-36.666c2.78-10.576,4.174-17.293,4.174-20.152c0-9.003-4.244-17.615-12.725-25.835
			c-8.484-8.217-12.725-15.398-12.725-21.547c0-7.462,3.208-14.536,9.624-21.226s13.758-10.035,22.028-10.035
			c6.984,0,13.33,3.038,19.034,9.106c5.701,6.072,8.555,15.603,8.555,28.588c0,6.716-1.12,16.22-3.358,28.508
			c-2.239,12.291-6.105,26.51-11.592,42.656c-5.487,16.147-11.986,31.225-19.495,45.227c-7.512,14.005-17.333,25.938-29.464,35.796
			c-12.13,9.861-25.347,14.79-39.642,14.79c-8.949,0-17.296-0.896-25.039-2.677c-7.743-1.788-15.095-4.642-22.055-8.571
			c-6.961-3.927-12.464-9.781-16.515-17.567c-4.05-7.782-6.072-17.246-6.072-28.388c0-15.578,5.561-38.553,16.682-68.928
			c11.121-30.376,16.682-48.352,16.682-53.925s-2.282-8.361-6.844-8.361c-5.848,0-12.297,3.736-19.355,11.201
			c-7.058,7.469-13.367,20.321-18.927,38.556c-1.143,4.455-2.496,7.255-4.063,8.404c-1.571,1.15-4.137,1.722-7.699,1.722h-3.422
			c-0.144,0-0.288,0-0.428,0C30.403,260.017,27.338,257.494,27.338,252.447z"/>
		<path fill="#FFFFFF" d="M260.025,252.745c0.285-1.711,0.782-4.134,1.498-7.271c0.711-3.134,2.459-8.625,5.239-16.468
			c2.78-7.839,6.059-14.757,9.838-20.745c3.776-5.988,9.016-11.475,15.72-16.468c6.699-4.989,14.186-7.485,22.455-7.485
			c20.389,0,35.572,8.057,45.555,24.167c17.249-16.394,36.069-24.595,56.46-24.595c14.256,0,26.947,3.422,38.068,10.266
			s16.682,16.682,16.682,29.514c0,8.982-3.137,16.789-9.41,23.418c-6.275,6.629-13.688,9.945-22.242,9.945
			c-6.703,0-11.943-1.958-15.719-5.882c-3.779-3.919-5.668-8.801-5.668-14.649c0-12.832,6.984-22.312,20.959-28.444
			c-7.842-5.273-15.686-7.913-23.525-7.913c-7.271,0-14.221,1.678-20.852,5.026c-6.629,3.352-12.051,7.452-16.254,12.297
			c-4.207,4.849-7.559,9.089-10.051,12.725c-2.497,3.636-4.171,6.453-5.026,8.448c-1.144,2.282-2.283,6.704-3.422,13.26
			l-27.59,109.5c-4.137,18.108-13.617,27.161-28.443,27.161c-5.561,0-10.266-1.711-14.115-5.133s-5.775-7.84-5.775-13.26
			c0-2.566,0.643-6.272,1.926-11.121l29.299-115.916c3.279-14.255,4.846-23.953,4.705-29.086c0-8.982-2.779-13.474-8.34-13.474
			c-5.277,0-10.02,4.17-14.223,12.511c-4.207,8.341-7.559,17.467-10.052,27.375c-2.496,9.912-4.03,15.152-4.599,15.719
			c-1.711,2.566-4.778,3.85-9.195,3.85h-2.994c-0.145,0-0.357,0-0.643,0C263.447,260.017,260.025,257.594,260.025,252.745z"/>
	</g>
	<g>
		<g>
			<g>
				<polygon fill="#FFFFFF" points="442.819,158 65,158 65,129 413.038,129 				"/>
			</g>
		</g>
		<g>
			
				<rect x="339.27" y="102.699" transform="matrix(0.7095 0.7047 -0.7047 0.7095 192.6256 -234.8831)" fill="#FFFFFF" width="83.878" height="27"/>
		</g>
	</g>
</g>
</svg>
