<?xml version="1.0" encoding="utf-8"?>
<svg version="1.1" id="Laag_1" xmlns="http://www.w3.org/2000/svg" xmlns:xlink="http://www.w3.org/1999/xlink" x="0px" y="0px"
	 width="500px" height="500px" viewBox="0 0 500 500" enable-background="new 0 0 500 500" xml:space="preserve">
<path fill="#777" d="M250.334,14.667C120.362,14.667,15,120.029,15,250c0,129.971,105.362,235.334,235.334,235.334
	c129.971,0,235.333-105.363,235.333-235.334C485.667,120.029,380.305,14.667,250.334,14.667z M244.177,243.125
	c-1.907,10.467-5.199,22.576-9.872,36.326s-10.208,26.59-16.602,38.514c-6.397,11.928-14.761,22.09-25.091,30.484
	c-10.33,8.398-21.585,12.596-33.759,12.596c-7.621,0-14.729-0.762-21.323-2.279c-6.594-1.523-12.854-3.953-18.782-7.299
	c-5.928-3.344-10.615-8.33-14.063-14.961c-3.449-6.627-5.171-14.688-5.171-24.174c0-13.268,4.735-32.832,14.206-58.701
	c9.471-25.867,14.206-41.175,14.206-45.921s-1.944-7.12-5.828-7.12c-4.98,0-10.473,3.182-16.482,9.539
	c-6.011,6.36-11.383,17.305-16.119,32.834c-0.973,3.793-2.126,6.385-3.46,7.364c-1.337,0.979-3.523,1.673-6.557,1.673h-2.914
	c-0.123,0-0.245,0-0.364,0c-5.222,0-7.832-2.356-7.832-6.653c0-2.416,1.184-6.72,3.551-12.705
	c2.368-5.984,5.706-12.505,10.018-19.457c4.308-6.949,10.318-13.051,18.03-18.25c7.709-5.196,16.056-7.81,25.043-7.81
	c10.441,0,19.516,3.032,27.229,9.105c7.709,6.073,11.565,14.098,11.565,24.081c0,4.505-4.434,18.806-13.295,42.908
	c-8.865,24.1-13.295,42.966-13.295,56.599c0,18.258,7.886,27.386,23.657,27.386c9.232,0,17.794-4.564,25.689-13.693
	c7.894-9.129,13.967-19.596,18.218-31.403c4.252-11.808,7.562-22.214,9.929-31.224c2.368-9.008,3.554-14.727,3.554-17.163
	c0-7.667-3.614-15-10.837-22c-7.225-6.998-10.836-13.113-10.836-18.35c0-6.354,2.732-12.379,8.196-18.076s11.716-8.546,18.759-8.546
	c5.948,0,11.352,2.587,16.209,7.755c4.855,5.17,7.285,13.287,7.285,24.345C247.037,224.568,246.084,232.661,244.177,243.125z
	 M88,158v-21h276.974l-27.004-22.875l13.573-16.024l47.205,39.988L423.819,158H88z M419.695,249.036
	c-5.709,0-10.171-1.667-13.387-5.009c-3.219-3.338-4.826-7.496-4.826-12.476c0-10.928,5.947-19.001,17.848-24.223
	c-6.678-4.491-13.357-6.739-20.033-6.739c-6.192,0-12.111,1.429-17.758,4.28c-5.646,2.854-10.262,6.346-13.842,10.472
	c-3.582,4.129-6.438,7.741-8.561,10.836c-2.125,3.097-3.551,5.496-4.279,7.194c-0.973,1.944-1.943,5.708-2.914,11.292l-23.494,93.25
	c-3.523,15.422-11.598,23.131-24.224,23.131c-4.735,0-8.742-1.457-12.021-4.371s-4.918-6.676-4.918-11.293
	c0-2.186,0.547-5.34,1.64-9.471l24.952-98.713c2.791-12.14,4.126-20.398,4.006-24.77c0-7.649-2.367-11.474-7.103-11.474
	c-4.493,0-8.532,3.552-12.112,10.654c-3.582,7.104-6.437,14.875-8.559,23.312c-2.127,8.441-3.433,13.11-3.916,13.594
	c-1.457,2.186-4.07,3.486-7.832,3.486h-2.55c-0.122,0-0.305,0-0.546,0c-5.828,0-8.742-2.271-8.742-6.4
	c0.241-1.457,0.666-3.624,1.274-6.296c0.606-2.669,2.095-7.396,4.462-14.076c2.367-6.676,5.16-12.593,8.379-17.692
	c3.215-5.1,7.678-9.785,13.386-14.037c5.706-4.248,12.08-6.381,19.124-6.381c17.361,0,30.293,6.858,38.793,20.578
	c14.689-13.961,30.717-20.947,48.082-20.947c12.141,0,22.947,2.914,32.418,8.742s14.207,14.206,14.207,25.133
	c0,7.649-2.672,14.296-8.014,19.943C433.293,246.212,426.98,249.036,419.695,249.036z"/>
</svg>
